<svg preserveAspectRatio="none" width="100%" height="100%" overflow="visible" style="display: block;" viewBox="0 0 1146 403" fill="none" xmlns="http://www.w3.org/2000/svg">
<g id="bg" clip-path="url(#clip0_0_70)">
<rect id="Rectangle 152" x="0.000488281" width="1146" height="403" rx="10" fill="var(--fill-0, #433E89)"/>
<path id="Ellipse 1" opacity="0.1" d="M1130 434C1130 406.417 1119.04 379.965 1099.54 360.461C1080.04 340.957 1053.58 330 1026 330C998.418 330 971.965 340.957 952.461 360.461C932.958 379.965 922 406.417 922 434L1026 434H1130Z" fill="var(--fill-0, white)"/>
<path id="Ellipse 2" opacity="0.1" d="M-105.933 205.133C-82.0462 218.925 -53.6588 222.662 -27.0162 215.523C-0.373511 208.384 22.342 190.954 36.1333 167.067C49.9246 143.179 53.6618 114.792 46.5229 88.1495C39.3841 61.5068 21.9538 38.7913 -1.93333 25L-53.9333 115.067L-105.933 205.133Z" fill="var(--fill-0, white)"/>
</g>
<defs>
<clipPath id="clip0_0_70">
<rect width="1146" height="403" fill="white"/>
</clipPath>
</defs>
</svg>
