<svg preserveAspectRatio="none" width="100%" height="100%" overflow="visible" style="display: block;" viewBox="0 0 27.9384 12.5027" fill="none" xmlns="http://www.w3.org/2000/svg">
<g id="Group">
<path id="Vector" d="M20.5038 5.92666C21.9561 6.09666 23.2711 5.05701 23.4411 3.60447C23.6109 2.15235 22.5714 0.837241 21.1189 0.667358C19.6666 0.497356 18.3515 1.53701 18.182 2.98943C18.0117 4.44185 19.0515 5.75678 20.5038 5.92666Z" fill="var(--fill-0, #FE753F)"/>
<path id="Vector_2" d="M8.97227 3.77349L12.9106 2.98703L13.7574 4.34905L10.6892 7.26669C11.1629 7.38642 11.6179 7.56462 12.0409 7.79776C12.2438 7.90958 12.4339 8.03875 12.6177 8.16355C12.9138 8.36465 13.1924 8.55819 13.4686 8.63402C13.687 8.69397 13.9732 8.69739 13.9914 8.69845C14.3803 8.69509 14.723 8.58687 15.0728 8.35881C15.9826 7.7656 17.0993 7.15109 18.4843 7.09025C18.5865 7.08577 18.6897 7.08347 18.7913 7.08347C19.2355 7.08347 19.67 7.12713 20.0854 7.21175C19.8004 6.75674 14.7228 0.603587 14.7228 0.603587L14.5889 0.443499C14.2613 0.0540479 13.7129 -0.108872 13.2073 0.0764123L8.4255 1.8303C7.96447 1.99889 7.68224 2.48275 7.78125 2.97901C7.89077 3.52719 8.42402 3.88289 8.97227 3.77349Z" fill="var(--fill-0, #FE753F)"/>
<path id="Vector_3" d="M26.3799 9.89109C25.728 10.1834 25.2421 10.3026 24.7025 10.3026C24.49 10.3026 24.2701 10.2836 24.0302 10.2443C23.2313 10.1018 22.6619 9.64048 22.1111 9.19433C21.7724 8.91994 21.4525 8.66072 21.0824 8.46989C20.4125 8.12263 19.607 7.93917 18.7521 7.93917C18.6634 7.93917 18.5732 7.94124 18.484 7.94519C17.3151 7.99647 16.3673 8.5165 15.517 9.07082C15.0182 9.39619 14.4265 9.55233 13.8896 9.55233C13.7277 9.55233 13.398 9.5168 13.1841 9.45508C12.7736 9.33671 12.4216 9.09755 12.0812 8.86648C11.9064 8.74764 11.7412 8.63552 11.5743 8.54353C10.8598 8.14959 10.0347 7.94135 9.18831 7.94135H9.17114C7.98614 7.94525 6.91444 8.30868 6.07205 8.99211C4.89903 9.94408 4.12491 10.2116 3.90422 10.2493C3.90422 10.2493 3.71911 10.2977 3.32164 10.2977C2.5602 10.2977 1.92386 10.0482 1.28516 9.77048C0.836465 9.57534 0.413616 9.46334 2.99859e-05 9.43071C0.0802216 9.47703 0.156991 9.52542 0.231459 9.57652C0.555647 9.80252 0.822481 10.0773 1.0804 10.3429C1.21848 10.485 1.34883 10.6193 1.48732 10.7468C2.02954 11.2456 3.14863 11.8352 4.43665 11.8352C5.09022 11.8352 5.72261 11.6931 6.31605 11.4127C6.49065 11.3302 6.66065 11.2319 6.84057 11.128C7.13909 10.9557 7.44917 10.782 7.79278 10.6663C8.22636 10.5202 8.89941 10.5686 8.89941 10.5686C9.59723 10.6132 10.1198 10.943 10.4971 11.2252C11.6466 12.0851 12.7311 12.4909 13.9101 12.5023L13.9702 12.5027C14.7814 12.5027 15.5236 12.3463 16.1763 12.038C16.4803 11.8942 16.7697 11.6829 17.0763 11.4589C17.652 11.0384 18.2474 10.6034 19.0141 10.5733C19.0597 10.5715 19.1061 10.5706 19.1532 10.5706C19.573 10.5706 20.2052 10.6435 20.8326 10.991C21.5879 11.4107 22.5015 11.8396 23.5557 11.8396C23.7089 11.8396 23.8653 11.8306 24.0204 11.8131C24.9908 11.7033 25.8109 11.3455 26.4582 10.7498C26.597 10.6221 26.7276 10.4874 26.8659 10.3448C27.161 10.0409 27.4659 9.72657 27.8512 9.48795C27.8801 9.46995 27.9091 9.45254 27.9384 9.43561C27.4728 9.47703 26.9795 9.62219 26.3799 9.89109Z" fill="var(--fill-0, #FE753F)"/>
</g>
</svg>
