<svg preserveAspectRatio="none" width="100%" height="100%" overflow="visible" style="display: block;" viewBox="0 0 21.9907 15" fill="none" xmlns="http://www.w3.org/2000/svg">
<g id="Group">
<path id="Vector" d="M17.662 6.43518H4.32866C3.84255 6.43518 3.42588 6.8287 3.42588 7.33796V8.33333H18.5416V7.33796C18.5648 6.8287 18.1481 6.43518 17.662 6.43518Z" fill="var(--fill-0, #FE753F)"/>
<path id="Vector_2" d="M20.7407 0H1.25C0.555556 0 0 0.555555 0 1.25V7.10648C0 7.80093 0.555556 8.35648 1.25 8.35648H2.38426V7.36111C2.38426 6.27315 3.26389 5.41667 4.3287 5.41667H17.662C18.75 5.41667 19.6065 6.2963 19.6065 7.36111V8.35648H20.7407C21.4352 8.35648 21.9907 7.80093 21.9907 7.10648V1.22685C21.9907 0.555555 21.4352 0 20.7407 0ZM15.8333 3.00926H14.5602C14.2593 3.00926 14.0278 2.77778 14.0278 2.47685C14.0278 2.17593 14.2593 1.94444 14.5602 1.94444H15.8333C16.1343 1.94444 16.3657 2.17593 16.3657 2.47685C16.3426 2.75463 16.1111 3.00926 15.8333 3.00926ZM19.0741 3.00926H17.8009C17.5 3.00926 17.2685 2.77778 17.2685 2.47685C17.2685 2.17593 17.5 1.94444 17.8009 1.94444H19.0741C19.375 1.94444 19.6065 2.17593 19.6065 2.47685C19.6065 2.75463 19.375 3.00926 19.0741 3.00926Z" fill="var(--fill-0, #FE753F)"/>
<path id="Vector_3" d="M13.1018 10.9259L13.3333 10.5324C13.4953 10.2778 13.4027 9.93057 13.1481 9.76853C12.8935 9.60649 12.5463 9.69909 12.3842 9.95371L12.1527 10.3472C11.6898 11.1111 11.7592 12.0833 12.3148 12.7546C12.5463 13.0324 12.5926 13.4259 12.4537 13.75L12.2453 14.213C12.1296 14.4908 12.2685 14.8148 12.5463 14.9537C12.6157 14.9769 12.6852 15 12.7546 15C12.9629 15 13.1713 14.8611 13.2639 14.6528L13.4722 14.1898C13.7731 13.4722 13.6574 12.662 13.1713 12.0602C12.9166 11.7361 12.8935 11.2963 13.1018 10.9259Z" fill="var(--fill-0, #FE753F)"/>
<path id="Vector_4" d="M9.60643 10.9259L9.83791 10.5324C9.99994 10.2778 9.90735 9.93057 9.65272 9.76853C9.39809 9.60649 9.05087 9.69909 8.88883 9.95371L8.65735 10.3472C8.19439 11.1111 8.26383 12.0833 8.81939 12.7546C9.05087 13.0324 9.09717 13.4259 8.95828 13.75L8.74994 14.213C8.6342 14.4908 8.77309 14.8148 9.05087 14.9537C9.12031 14.9769 9.18976 15 9.2592 15C9.46754 15 9.67587 14.8611 9.76846 14.6528L9.9768 14.1898C10.2777 13.4722 10.162 12.662 9.67587 12.0602C9.42124 11.7361 9.39809 11.2963 9.60643 10.9259Z" fill="var(--fill-0, #FE753F)"/>
<path id="Vector_5" d="M16.5972 10.9259L16.8287 10.5324C16.9907 10.2778 16.8981 9.93057 16.6435 9.76853C16.3889 9.60649 16.0417 9.69909 15.8796 9.95371L15.6481 10.3472C15.1852 11.1111 15.2546 12.0833 15.8102 12.7546C16.0417 13.0324 16.088 13.4259 15.9491 13.75L15.7407 14.213C15.625 14.4908 15.7639 14.8148 16.0417 14.9537C16.1111 14.9769 16.1805 15 16.25 15C16.4583 15 16.6667 14.8611 16.7592 14.6528L16.9676 14.1898C17.2685 13.4722 17.1528 12.662 16.6667 12.0602C16.412 11.7361 16.3889 11.2963 16.5972 10.9259Z" fill="var(--fill-0, #FE753F)"/>
<path id="Vector_6" d="M6.11117 10.9259L6.34266 10.5324C6.50469 10.2778 6.4121 9.93057 6.15747 9.76853C5.90284 9.60649 5.55562 9.69909 5.39358 9.95371L5.1621 10.3472C4.69914 11.1111 4.76858 12.0833 5.32414 12.7546C5.55562 13.0324 5.60192 13.4259 5.46303 13.75L5.25469 14.213C5.13895 14.4908 5.27784 14.8148 5.55562 14.9537C5.62506 14.9769 5.69451 15 5.76395 15C5.97229 15 6.18062 14.8611 6.27321 14.6528L6.48154 14.1898C6.78247 13.4722 6.66673 12.662 6.18062 12.0602C5.92599 11.7361 5.90284 11.2963 6.11117 10.9259Z" fill="var(--fill-0, #FE753F)"/>
</g>
</svg>
