<svg preserveAspectRatio="none" width="100%" height="100%" overflow="visible" style="display: block;" viewBox="0 0 23.7865 13.3425" fill="none" xmlns="http://www.w3.org/2000/svg">
<g id="Group">
<path id="Vector" d="M5.54678 5.32198V6.89609H11.2685V0H4.49737C3.67284 0 2.99822 0.674618 2.99822 1.49915V3.3481H3.54791C4.67228 3.3481 5.54678 4.22261 5.54678 5.32198Z" fill="var(--fill-0, #FE753F)"/>
<path id="Vector_2" d="M18.1896 5.32198C18.1896 4.22261 19.0891 3.3481 20.1635 3.3481H20.7132V1.49915C20.7132 0.674618 20.0386 0 19.214 0H12.4679V6.89609H18.1896V5.32198Z" fill="var(--fill-0, #FE753F)"/>
<path id="Vector_3" d="M21.7627 4.52248H20.1636C19.7138 4.52248 19.364 4.87228 19.364 5.32202V7.84559C19.364 7.99551 19.2641 8.09545 19.1142 8.09545H4.62238C4.47246 8.09545 4.37252 7.99551 4.37252 7.84559V5.32202C4.37252 4.87228 4.02272 4.52248 3.57297 4.52248H1.97388C0.89949 4.52248 0 5.39698 0 6.49636C0 7.57075 0.874504 8.47024 1.97388 8.47024V10.4691C1.97388 11.2686 2.59853 11.9183 3.37309 11.9433V12.7428C3.37309 13.0676 3.64793 13.3425 3.97275 13.3425H5.34697C5.67178 13.3425 5.94663 13.0676 5.94663 12.7428V11.9433H17.8399V12.7428C17.8399 13.0676 18.1147 13.3425 18.4395 13.3425H19.8138C20.1386 13.3425 20.4134 13.0676 20.4134 12.7428V11.9183C21.188 11.8683 21.8126 11.2437 21.8126 10.4441V8.44525C22.887 8.44525 23.7865 7.57075 23.7865 6.47137C23.7365 5.39698 22.862 4.52248 21.7627 4.52248Z" fill="var(--fill-0, #FE753F)"/>
</g>
</svg>
