<svg preserveAspectRatio="none" width="100%" height="100%" overflow="visible" style="display: block;" viewBox="0 0 19 22.3122" fill="none" xmlns="http://www.w3.org/2000/svg">
<g id="surface1">
<path id="Vector" d="M9.49993 6.90536C7.15571 6.90536 5.24864 8.81243 5.24864 11.1565C5.24864 13.5007 7.15571 15.4078 9.49993 15.4078C11.844 15.4078 13.751 13.5007 13.751 11.1565C13.751 8.81243 11.844 6.90536 9.49993 6.90536ZM12.0239 10.3559L8.97835 13.4014C8.85051 13.5293 8.68283 13.5933 8.51533 13.5933C8.34782 13.5933 8.18032 13.5295 8.05248 13.4014L6.88862 12.2376C6.63294 11.9821 6.63294 11.5676 6.88862 11.3119C7.14414 11.0562 7.55864 11.0562 7.81433 11.3119L8.51533 12.0129L11.0982 9.43019C11.3537 9.17451 11.7682 9.17451 12.0239 9.43019C12.2796 9.6857 12.2796 10.1002 12.0239 10.3559Z" fill="var(--fill-0, #FE753F)"/>
<path id="Vector_2" d="M18.9779 6.05386L18.9772 6.0365C18.9675 5.82218 18.961 5.59544 18.9571 5.34316C18.9389 4.11292 17.9609 3.0953 16.7305 3.02653C14.1652 2.88336 12.1807 2.04686 10.485 0.39412L10.4705 0.380332C9.91748 -0.126777 9.08319 -0.126777 8.52995 0.380332L8.51548 0.39412C6.81984 2.04686 4.83532 2.88336 2.26998 3.0267C1.03974 3.0953 0.0616146 4.11292 0.0434002 5.34333C0.0396552 5.5939 0.0330163 5.82065 0.0233133 6.0365L0.0222919 6.07684C-0.0275849 8.69274 -0.0895478 11.9483 0.999571 14.9033C1.59843 16.5283 2.50541 17.9409 3.69513 19.102C5.05015 20.4243 6.82494 21.4741 8.97016 22.2221C9.03995 22.2465 9.11247 22.2662 9.18635 22.281C9.29053 22.3018 9.39539 22.3122 9.50025 22.3122C9.60511 22.3122 9.71014 22.3018 9.81415 22.281C9.88803 22.2662 9.96105 22.2463 10.0312 22.2218C12.1738 21.4724 13.9468 20.4221 15.3006 19.1C16.4898 17.9385 17.3968 16.5256 17.9962 14.9003C19.0894 11.9364 19.0276 8.67469 18.9779 6.05386ZM9.49991 16.7169C6.43376 16.7169 3.93941 14.2226 3.93941 11.1564C3.93941 8.0903 6.43376 5.59595 9.49991 5.59595C12.5659 5.59595 15.0604 8.0903 15.0604 11.1564C15.0604 14.2226 12.5659 16.7169 9.49991 16.7169Z" fill="var(--fill-0, #FE753F)"/>
</g>
</svg>
