<svg width="64" height="64" viewBox="0 0 64 64" fill="none" xmlns="http://www.w3.org/2000/svg">
  <path d="M26.667 10.667H10.667C8.09 10.667 6 12.757 6 15.333V31.333C6 33.91 8.09 36 10.667 36H22.667V39.333C22.667 43.015 19.682 46 16 46H14.667C13.194 46 12 47.194 12 48.667V51.333C12 52.806 13.194 54 14.667 54H16C24.104 54 30.667 47.437 30.667 39.333V15.333C30.667 12.757 28.577 10.667 26.667 10.667Z" fill="#030A1B"/>
  <path d="M53.333 10.667H37.333C34.757 10.667 32.667 12.757 32.667 15.333V31.333C32.667 33.91 34.757 36 37.333 36H49.333V39.333C49.333 43.015 46.348 46 42.667 46H41.333C39.86 46 38.667 47.194 38.667 48.667V51.333C38.667 52.806 39.86 54 41.333 54H42.667C50.771 54 57.333 47.437 57.333 39.333V15.333C57.333 12.757 55.243 10.667 53.333 10.667Z" fill="#030A1B"/>
</svg>
